# xmcd CD Database Entry
#
# Track frame offsets:
# 150
# 20665
# 23570
# 47305
# 62187
# 94080
# 110362
# 149150
# 172830
#
# Disc length: 2430 seconds
#
# Revision: 2
# Processed by: cddbd v1.4PL0 Copyright (c) Steve Scherf et al.
# Submitted via: tcd 2.0b
#
DISCID=70097c09
DTITLE=B.B. King - The Best Of B.B. King
DYEAR=1900
DGENRE=
TTITLE0=Hummingbird
TTITLE1=Cook County Jail Introduction
TTITLE2=How Blue Can You Get
TTITLE3=Caldonia
TTITLE4=Sweet Sixteen
TTITLE5=Ain't Nobody Home
TTITLE6=Why I Sing The Blues
TTITLE7=The Thrill Is Gone
TTITLE8=Nobody Loves Me But My Mother
EXTD=
EXTT0=
EXTT1=
EXTT2=
EXTT3=
EXTT4=
EXTT5=
EXTT6=
EXTT7=
EXTT8=
PLAYORDER=
